<svg width="374" height="283" viewBox="0 0 374 283" fill="none" xmlns="http://www.w3.org/2000/svg">
<path d="M283 141.5C283 219.648 219.648 283 141.5 283C63.3517 283 0 219.648 0 141.5C0 63.3517 63.3517 0 141.5 0C219.648 0 283 63.3517 283 141.5Z" fill="#148EFF"/>
<path d="M212 136.874V203.926C209.192 207.048 204.901 210.399 199.129 213.978C193.434 217.557 186.14 220.641 177.247 223.23C168.354 225.743 157.745 227 145.42 227C134.265 227 124.124 225.248 114.997 221.745C105.87 218.166 98.0299 212.95 91.4772 206.096C84.9245 199.166 79.8539 190.713 76.2656 180.737C72.7552 170.762 71 159.339 71 146.469V136.645C71 123.776 72.7552 112.353 76.2656 102.377C79.7759 92.4008 84.7295 83.986 91.1261 77.1323C97.5228 70.2024 105.129 64.9479 113.944 61.3687C122.759 57.7896 132.51 56 143.197 56C158.408 56 170.851 58.3988 180.524 63.1964C190.197 67.9178 197.529 74.4669 202.522 82.8437C207.593 91.2204 210.713 100.854 211.883 111.743H175.141C174.361 106.184 172.801 101.387 170.461 97.3507C168.198 93.3146 164.961 90.2305 160.749 88.0982C156.536 85.8898 151.076 84.7856 144.367 84.7856C138.984 84.7856 134.109 85.8898 129.74 88.0982C125.45 90.2305 121.822 93.4669 118.858 97.8076C115.894 102.148 113.632 107.555 112.071 114.028C110.511 120.425 109.731 127.888 109.731 136.417V146.469C109.731 154.998 110.511 162.499 112.071 168.972C113.71 175.445 116.089 180.852 119.209 185.192C122.329 189.457 126.269 192.693 131.027 194.902C135.864 197.11 141.481 198.214 147.877 198.214C152.87 198.214 157.082 197.834 160.515 197.072C163.947 196.234 166.755 195.206 168.939 193.988C171.124 192.693 172.762 191.513 173.854 190.447V162.804H143.548V136.874H212Z" fill="white"/>
<circle cx="296.5" cy="205.5" r="77.5" fill="#4E8AC8"/>
<path d="M357.826 190.805V217.294H236V190.805H357.826ZM311.195 141V270.395H282.753V141H311.195Z" fill="white"/>
</svg>
