<svg width="1059" height="283" viewBox="0 0 1059 283" fill="none" xmlns="http://www.w3.org/2000/svg">
<path d="M474.875 145.742H438.645L438.449 127.871H470.09C475.428 127.871 479.953 127.09 483.664 125.527C487.44 123.9 490.305 121.589 492.258 118.594C494.211 115.534 495.188 111.855 495.188 107.559C495.188 102.806 494.276 98.9323 492.453 95.9375C490.63 92.9427 487.831 90.7617 484.055 89.3945C480.344 88.0273 475.591 87.3438 469.797 87.3438H446.066V210H421.555V67.8125H469.797C477.609 67.8125 484.576 68.5612 490.695 70.0586C496.88 71.556 502.121 73.8997 506.418 77.0898C510.78 80.2148 514.068 84.1862 516.281 89.0039C518.56 93.8216 519.699 99.5508 519.699 106.191C519.699 112.051 518.299 117.422 515.5 122.305C512.701 127.122 508.566 131.061 503.098 134.121C497.629 137.181 490.826 139.004 482.688 139.59L474.875 145.742ZM473.801 210H430.93L441.965 190.566H473.801C479.335 190.566 483.957 189.655 487.668 187.832C491.379 185.944 494.146 183.372 495.969 180.117C497.857 176.797 498.801 172.923 498.801 168.496C498.801 163.874 497.987 159.87 496.359 156.484C494.732 153.034 492.16 150.397 488.645 148.574C485.129 146.686 480.539 145.742 474.875 145.742H447.336L447.531 127.871H483.371L488.938 134.609C496.75 134.87 503.163 136.595 508.176 139.785C513.254 142.975 517.03 147.109 519.504 152.188C521.978 157.266 523.215 162.734 523.215 168.594C523.215 177.643 521.229 185.228 517.258 191.348C513.352 197.467 507.72 202.122 500.363 205.312C493.007 208.438 484.152 210 473.801 210ZM597.148 188.809V138.418C597.148 134.642 596.465 131.387 595.098 128.652C593.73 125.918 591.647 123.802 588.848 122.305C586.113 120.807 582.663 120.059 578.496 120.059C574.655 120.059 571.335 120.71 568.535 122.012C565.736 123.314 563.555 125.072 561.992 127.285C560.43 129.499 559.648 132.005 559.648 134.805H536.211C536.211 130.638 537.22 126.602 539.238 122.695C541.257 118.789 544.186 115.306 548.027 112.246C551.868 109.186 556.458 106.777 561.797 105.02C567.135 103.262 573.125 102.383 579.766 102.383C587.708 102.383 594.74 103.717 600.859 106.387C607.044 109.056 611.895 113.092 615.41 118.496C618.991 123.835 620.781 130.54 620.781 138.613V185.586C620.781 190.404 621.107 194.733 621.758 198.574C622.474 202.35 623.483 205.638 624.785 208.438V210H600.664C599.557 207.461 598.678 204.238 598.027 200.332C597.441 196.361 597.148 192.52 597.148 188.809ZM600.566 145.742L600.762 160.293H583.867C579.505 160.293 575.664 160.716 572.344 161.562C569.023 162.344 566.257 163.516 564.043 165.078C561.829 166.641 560.169 168.529 559.062 170.742C557.956 172.956 557.402 175.462 557.402 178.262C557.402 181.061 558.053 183.633 559.355 185.977C560.658 188.255 562.546 190.046 565.02 191.348C567.559 192.65 570.618 193.301 574.199 193.301C579.017 193.301 583.216 192.324 586.797 190.371C590.443 188.353 593.307 185.911 595.391 183.047C597.474 180.117 598.581 177.35 598.711 174.746L606.328 185.195C605.547 187.865 604.212 190.729 602.324 193.789C600.436 196.849 597.962 199.779 594.902 202.578C591.908 205.312 588.294 207.559 584.062 209.316C579.896 211.074 575.078 211.953 569.609 211.953C562.708 211.953 556.556 210.586 551.152 207.852C545.749 205.052 541.517 201.309 538.457 196.621C535.397 191.868 533.867 186.497 533.867 180.508C533.867 174.909 534.909 169.961 536.992 165.664C539.141 161.302 542.266 157.656 546.367 154.727C550.534 151.797 555.612 149.583 561.602 148.086C567.591 146.523 574.427 145.742 582.109 145.742H600.566ZM680.555 193.203C684.396 193.203 687.846 192.454 690.906 190.957C694.031 189.395 696.538 187.246 698.426 184.512C700.379 181.777 701.453 178.62 701.648 175.039H723.816C723.686 181.875 721.668 188.092 717.762 193.691C713.855 199.29 708.68 203.75 702.234 207.07C695.789 210.326 688.66 211.953 680.848 211.953C672.775 211.953 665.743 210.586 659.754 207.852C653.764 205.052 648.784 201.211 644.812 196.328C640.841 191.445 637.846 185.814 635.828 179.434C633.875 173.053 632.898 166.217 632.898 158.926V155.508C632.898 148.216 633.875 141.38 635.828 135C637.846 128.555 640.841 122.891 644.812 118.008C648.784 113.125 653.764 109.316 659.754 106.582C665.743 103.783 672.742 102.383 680.75 102.383C689.214 102.383 696.635 104.076 703.016 107.461C709.396 110.781 714.409 115.436 718.055 121.426C721.766 127.35 723.686 134.251 723.816 142.129H701.648C701.453 138.223 700.477 134.707 698.719 131.582C697.026 128.392 694.617 125.853 691.492 123.965C688.432 122.077 684.754 121.133 680.457 121.133C675.704 121.133 671.766 122.109 668.641 124.062C665.516 125.951 663.074 128.555 661.316 131.875C659.559 135.13 658.289 138.809 657.508 142.91C656.792 146.947 656.434 151.146 656.434 155.508V158.926C656.434 163.288 656.792 167.52 657.508 171.621C658.224 175.723 659.461 179.401 661.219 182.656C663.042 185.846 665.516 188.418 668.641 190.371C671.766 192.259 675.737 193.203 680.555 193.203ZM757.613 60V210H733.98V60H757.613ZM823.238 104.336L777.242 155.312L752.047 181.094L745.895 161.172L764.938 137.637L794.82 104.336H823.238ZM799.898 210L765.621 160.391L780.465 143.887L827.145 210H799.898ZM893.754 185.098V104.336H917.387V210H895.121L893.754 185.098ZM897.074 163.125L904.984 162.93C904.984 170.026 904.203 176.569 902.641 182.559C901.078 188.483 898.669 193.659 895.414 198.086C892.159 202.448 887.992 205.866 882.914 208.34C877.836 210.749 871.749 211.953 864.652 211.953C859.509 211.953 854.789 211.204 850.492 209.707C846.195 208.21 842.484 205.898 839.359 202.773C836.299 199.648 833.923 195.579 832.23 190.566C830.538 185.553 829.691 179.564 829.691 172.598V104.336H853.227V172.793C853.227 176.634 853.682 179.857 854.594 182.461C855.505 185 856.742 187.051 858.305 188.613C859.867 190.176 861.69 191.283 863.773 191.934C865.857 192.585 868.07 192.91 870.414 192.91C877.12 192.91 882.393 191.608 886.234 189.004C890.141 186.335 892.908 182.754 894.535 178.262C896.228 173.77 897.074 168.724 897.074 163.125ZM957.141 124.648V250.625H933.605V104.336H955.285L957.141 124.648ZM1025.99 156.191V158.242C1025.99 165.924 1025.08 173.053 1023.25 179.629C1021.5 186.139 1018.86 191.836 1015.34 196.719C1011.89 201.536 1007.63 205.28 1002.55 207.949C997.473 210.618 991.613 211.953 984.973 211.953C978.397 211.953 972.635 210.749 967.688 208.34C962.805 205.866 958.671 202.383 955.285 197.891C951.9 193.398 949.165 188.125 947.082 182.07C945.064 175.951 943.632 169.245 942.785 161.953V154.043C943.632 146.296 945.064 139.264 947.082 132.949C949.165 126.634 951.9 121.198 955.285 116.641C958.671 112.083 962.805 108.568 967.688 106.094C972.57 103.62 978.267 102.383 984.777 102.383C991.418 102.383 997.31 103.685 1002.45 106.289C1007.6 108.828 1011.93 112.474 1015.44 117.227C1018.96 121.914 1021.59 127.578 1023.35 134.219C1025.11 140.794 1025.99 148.118 1025.99 156.191ZM1002.45 158.242V156.191C1002.45 151.309 1002 146.784 1001.09 142.617C1000.17 138.385 998.742 134.674 996.789 131.484C994.836 128.294 992.329 125.82 989.27 124.062C986.275 122.24 982.661 121.328 978.43 121.328C974.263 121.328 970.682 122.044 967.688 123.477C964.693 124.844 962.186 126.764 960.168 129.238C958.15 131.712 956.587 134.609 955.48 137.93C954.374 141.185 953.592 144.733 953.137 148.574V167.52C953.918 172.207 955.253 176.504 957.141 180.41C959.029 184.316 961.698 187.441 965.148 189.785C968.664 192.064 973.156 193.203 978.625 193.203C982.857 193.203 986.47 192.292 989.465 190.469C992.46 188.646 994.901 186.139 996.789 182.949C998.742 179.694 1000.17 175.951 1001.09 171.719C1002 167.487 1002.45 162.995 1002.45 158.242Z" fill="#6C6D75"/>
<path d="M283 141.5C283 219.648 219.648 283 141.5 283C63.3517 283 0 219.648 0 141.5C0 63.3517 63.3517 0 141.5 0C219.648 0 283 63.3517 283 141.5Z" fill="#148EFF"/>
<path d="M212 136.874V203.926C209.192 207.048 204.901 210.399 199.129 213.978C193.434 217.557 186.14 220.641 177.247 223.23C168.354 225.743 157.745 227 145.42 227C134.265 227 124.124 225.248 114.997 221.745C105.87 218.166 98.0299 212.95 91.4772 206.096C84.9245 199.166 79.8539 190.713 76.2656 180.737C72.7552 170.762 71 159.339 71 146.469V136.645C71 123.776 72.7552 112.353 76.2656 102.377C79.7759 92.4008 84.7295 83.986 91.1261 77.1323C97.5228 70.2024 105.129 64.9479 113.944 61.3687C122.759 57.7896 132.51 56 143.197 56C158.408 56 170.851 58.3988 180.524 63.1964C190.197 67.9178 197.529 74.4669 202.522 82.8437C207.593 91.2204 210.713 100.854 211.883 111.743H175.141C174.361 106.184 172.801 101.387 170.461 97.3507C168.198 93.3146 164.961 90.2305 160.749 88.0982C156.536 85.8898 151.076 84.7856 144.367 84.7856C138.984 84.7856 134.109 85.8898 129.74 88.0982C125.45 90.2305 121.822 93.4669 118.858 97.8076C115.894 102.148 113.632 107.555 112.071 114.028C110.511 120.425 109.731 127.888 109.731 136.417V146.469C109.731 154.998 110.511 162.499 112.071 168.972C113.71 175.445 116.089 180.852 119.209 185.192C122.329 189.457 126.269 192.693 131.027 194.902C135.864 197.11 141.481 198.214 147.877 198.214C152.87 198.214 157.082 197.834 160.515 197.072C163.947 196.234 166.755 195.206 168.939 193.988C171.124 192.693 172.762 191.513 173.854 190.447V162.804H143.548V136.874H212Z" fill="white"/>
<circle cx="296.5" cy="205.5" r="77.5" fill="#4E8AC8"/>
<path d="M357.826 190.805V217.294H236V190.805H357.826ZM311.195 141V270.395H282.753V141H311.195Z" fill="white"/>
</svg>
