<svg width="6000" height="4000" viewBox="0 0 6000 4000" fill="none" xmlns="http://www.w3.org/2000/svg">
<path d="M2259.7 3108.3C2581.9 3068 2908.5 3050.1 3221.7 3153C3391.7 3211.2 3570.7 3166.4 3749.7 3121.7C3794.4 3108.3 3839.2 3108.3 3879.5 3121.7C4013.7 3179.9 4152.5 3229.1 4300.1 3211.2C4371.7 3202.3 4434.3 3175.4 4510.4 3170.9C4568.6 3170.9 4622.3 3139.6 4676 3130.6C4712.2 3124.8 4749 3119.9 4786 3117C3934.3 2935 1623.5 2875.1 969.5 3083.7C969.5 3083.7 851.601 3168.6 866.401 3266.9C1148 3094.3 1514.5 3123.5 1839.1 3103.7C1977.8 3094.9 2125.4 3126.2 2259.7 3108.3" fill="#039BE5"/>
<path d="M5103.6 3256.2C5067.3 3218.6 4976.7 3157.9 4785.9 3117.2C4749 3120 4712.1 3124.9 4675.9 3130.8C4622.2 3139.7 4568.5 3171.1 4510.3 3171.1C4434.2 3175.6 4371.6 3202.4 4300 3211.4C4152.3 3229.3 4013.6 3180.1 3879.4 3121.9C3839.1 3108.5 3794.4 3108.5 3749.6 3121.9C3570.6 3166.6 3391.6 3211.4 3221.6 3153.2C2908.4 3050.3 2581.7 3068.2 2259.6 3108.5C2125.4 3126.4 1977.7 3095.1 1839 3104C1514.5 3123.8 1148 3094.6 866.301 3267.2C880.901 3364.3 803.701 3522.2 1557 3454.1C1759.5 3435.8 2139.1 3697.4 2457.9 3607.2C2861.7 3493 3365 3382.5 4234.8 3504.3C5104.7 3626 5236.1 3393.3 5103.6 3256.2" fill="#5EC1ED"/>
<path d="M1893.8 2933.5C1857.7 2942.4 1825.5 2912.6 1801.2 2890.3C1778.1 2869.1 1756.3 2846.4 1735.9 2822.6C1694.1 2773.7 1658.1 2719.8 1628.3 2662.8C1611 2629.6 1595.8 2595.3 1582.7 2560.1C1582.1 2558.4 1579.3 2559.1 1579.9 2560.9C1603.4 2624.1 1633.8 2684.7 1670.9 2741C1706.9 2795.6 1749.1 2846.2 1797.1 2890.6C1822.7 2914.2 1856.4 2945.8 1894.4 2936.4C1896.3 2935.8 1895.6 2933 1893.8 2933.5" fill="#336D89"/>
<path d="M1630.9 2763.4C1644.9 2771.7 1658.4 2780.8 1671.5 2790.5C1675 2793.1 1678.5 2795.7 1681.9 2798.4C1684.2 2800.2 1686.6 2802.6 1689.5 2803.5C1692.6 2804.4 1695.8 2802.9 1698.7 2801.9C1702.7 2800.6 1706.8 2799.3 1710.8 2798C1712.5 2797.4 1711.8 2794.7 1710 2795.2C1706.2 2796.4 1702.4 2797.7 1698.6 2798.9C1697 2799.4 1695.4 2800.1 1693.7 2800.5C1690.4 2801.3 1688.8 2800.2 1686.2 2798.2C1680.5 2793.9 1675 2789.5 1669.2 2785.3C1657.2 2776.6 1644.9 2768.5 1632.2 2760.9C1630.8 2760 1629.4 2762.4 1630.9 2763.4V2763.4ZM1749.3 2836.3C1747.6 2828.8 1748.4 2820.7 1747.8 2813C1747.3 2806 1746.5 2799 1745.4 2792.1C1743 2777 1739.3 2762.3 1734.2 2747.9C1733.6 2746.2 1730.8 2746.9 1731.4 2748.7C1736.4 2763.1 1740.2 2777.9 1742.6 2792.9C1743.8 2800.7 1744.7 2808.5 1745.1 2816.4C1745.5 2823.3 1744.9 2830.4 1746.5 2837.1C1746.9 2838.9 1749.7 2838.1 1749.3 2836.3V2836.3ZM1704.6 2858.4C1718.8 2861.4 1732.7 2866 1746 2871.9C1751.5 2874.4 1757.2 2878.3 1763.2 2879.5C1769.5 2880.8 1775.6 2877.2 1781.8 2878.8C1783.6 2879.3 1784.4 2876.5 1782.6 2876C1776.3 2874.4 1770.3 2878 1764 2876.7C1760.8 2876.1 1757.8 2874.3 1754.8 2872.8C1751.5 2871.2 1748.2 2869.6 1744.8 2868.2C1732.1 2862.7 1719 2858.4 1705.4 2855.6C1703.6 2855.3 1702.8 2858 1704.6 2858.4ZM1823.1 2893.8C1816.1 2869.4 1804.1 2846.9 1792.1 2824.7C1791.2 2823.1 1788.8 2824.5 1789.6 2826.1C1801.5 2848.1 1813.3 2870.4 1820.3 2894.5C1820.9 2896.4 1823.7 2895.6 1823.1 2893.8V2893.8ZM1771.9 2946.7C1782.2 2946.8 1792.3 2948.1 1802.3 2950.2C1811.5 2952.1 1820.6 2954.1 1830 2952.7C1831.8 2952.4 1831 2949.7 1829.2 2949.9C1819.3 2951.4 1809.4 2948.6 1799.8 2946.7C1790.6 2944.9 1781.3 2943.9 1771.9 2943.8C1770 2943.8 1770 2946.7 1771.9 2946.7ZM1659.5 2702.6C1662 2700.3 1662.1 2696.7 1662.2 2693.5C1662.4 2688.6 1662.4 2683.6 1662.1 2678.7C1661.7 2669 1660.4 2659.3 1658.5 2649.7C1658.1 2647.9 1655.4 2648.7 1655.7 2650.5C1657.4 2659.2 1658.6 2667.9 1659.1 2676.8C1659.3 2681.1 1659.4 2685.4 1659.4 2689.6C1659.4 2692.8 1660 2698.2 1657.4 2700.6C1656.1 2701.8 1658.1 2703.8 1659.5 2702.6" fill="#336D89"/>
<path d="M1552 2364.7C1544.8 2353.9 1540.3 2315 1526.1 2313.2C1515.1 2311.8 1513.1 2326.3 1512.5 2334.7C1504.5 2379.4 1576.4 2403.5 1552 2364.7Z" fill="#336D89"/>
<path d="M2936.3 2946.9C3001.9 2949.5 3050.4 2892.7 3086.4 2845.2C3124.4 2795 3159 2742.2 3190.2 2687.6C3222 2632.1 3250.3 2574.6 3275.2 2515.7C3300.3 2456.3 3321.9 2395.5 3340 2333.7C3358.3 2270.9 3373 2207 3384 2142.5C3385.4 2134.4 3386.7 2126.4 3387.9 2118.3C3388.4 2114.8 3383.1 2113.3 3382.6 2116.8C3363 2243.2 3329.2 2367.3 3281.6 2486C3235.1 2602 3175.2 2712.9 3102.3 2814.4C3081.3 2843.6 3059.9 2873.2 3033.5 2897.9C3007.2 2922.6 2973.6 2942.8 2936.3 2941.4C2932.8 2941.3 2932.8 2946.8 2936.3 2946.9" fill="#336D89"/>
<path d="M3366.8 2513C3345.1 2532.7 3324.3 2553.4 3304.6 2575C3295 2585.5 3286.1 2596.9 3276.3 2607.2C3273.2 2610.4 3270.3 2611.9 3265.7 2611.8C3262.3 2611.7 3258.8 2611.1 3255.4 2610.8C3247.6 2610 3239.8 2609.3 3232 2608.5C3228.5 2608.2 3228.5 2613.7 3232 2614C3240.2 2614.8 3248.3 2615.6 3256.5 2616.4C3262.8 2617 3269.7 2618.7 3275.4 2615.2C3280.7 2612 3284.5 2606.1 3288.5 2601.5C3293.7 2595.4 3299 2589.4 3304.4 2583.5C3325.4 2560.2 3347.6 2538 3370.9 2516.9C3373.4 2514.5 3369.4 2510.6 3366.8 2513ZM3179.3 2701.4C3179.7 2688.2 3175.6 2674.8 3173.6 2661.8C3171.4 2647.2 3170 2632.6 3169.2 2617.9C3167.7 2588.8 3169 2559.6 3172.9 2530.8C3173.4 2527.3 3168.1 2525.8 3167.6 2529.3C3163.7 2557.9 3162.2 2586.8 3163.6 2615.7C3164.2 2629.5 3165.5 2643.2 3167.4 2656.9C3169.4 2671.5 3174.2 2686.6 3173.8 2701.3C3173.7 2704.9 3179.2 2704.9 3179.3 2701.4ZM3265 2719.6C3240.35 2730.48 3216.83 2743.78 3194.8 2759.3C3189.4 2763.1 3184.2 2767 3179 2771C3173.5 2775.3 3168.2 2780.2 3161.7 2782.9C3150.2 2787.7 3137.4 2783.4 3126 2789.1C3122.8 2790.7 3125.6 2795.5 3128.8 2793.9C3139.8 2788.3 3152.9 2792.8 3164.2 2787.9C3169.9 2785.4 3174.6 2781.4 3179.5 2777.6C3185.4 2772.9 3191.5 2768.4 3197.7 2764C3219.7 2748.5 3243.2 2735.2 3267.9 2724.3C3271 2722.9 3268.2 2718.2 3265 2719.6ZM3061.1 2838.9C3064.8 2790.8 3078.7 2744.5 3092.7 2698.6C3093.7 2695.2 3088.4 2693.7 3087.4 2697.1C3073.3 2743.5 3059.4 2790.3 3055.7 2838.9C3055.3 2842.4 3060.8 2842.4 3061.1 2838.9ZM3172.9 2911.4C3154.8 2915.5 3137.3 2921.2 3120.2 2928.5C3102.7 2935.9 3085.3 2944.8 3066 2946C3062.5 2946.2 3062.4 2951.8 3066 2951.5C3084.3 2950.3 3101 2942.7 3117.6 2935.5C3136 2927.5 3154.8 2921.1 3174.4 2916.6C3177.8 2915.9 3176.3 2910.6 3172.9 2911.4V2911.4ZM3295.2 2410.3C3289.4 2406.9 3288.5 2396.6 3287.2 2390.7C3285.4 2382.6 3283.8 2374.4 3282.6 2366.2C3280.1 2349.6 3278.9 2332.8 3278.8 2315.9C3278.8 2312.3 3273.3 2312.3 3273.3 2315.9C3273.4 2334.5 3274.9 2353 3277.9 2371.3C3279.4 2380.4 3281.2 2389.4 3283.4 2398.4C3284.9 2404.6 3286.5 2411.6 3292.5 2415C3295.5 2416.8 3298.2 2412.1 3295.2 2410.3" fill="#336D89"/>
<path d="M3551.1 1912.1C3556.5 1896 3549.8 1842.7 3566.7 1836.9C3579.7 1832.5 3586.7 1851.5 3590 1862.7C3613.6 1920.9 3533.5 1969.8 3551.1 1912.1ZM3638.8 2304.5C3638.8 2304.5 3694.7 2155.1 3762.6 2146.1C3830.4 2137 3651.9 2379.7 3638.8 2304.5Z" fill="#336D89"/>
<path d="M2310.1 2553.4C2310.1 2553.4 2319.5 2552.5 2335.9 2549.8" stroke="#AEC7F1" stroke-width="4.847" stroke-linecap="round" stroke-linejoin="round"/>
<path d="M2387.2 2539.8C2528.3 2508 2814.5 2407.7 2826.6 2116.1C2840.2 1788.6 2555.4 1251.6 2466.9 1093.1" stroke="#AEC7F1" stroke-width="4.847" stroke-linecap="round" stroke-linejoin="round" stroke-dasharray="11.71 11.71"/>
<path d="M2630.6 2995.5C2630.6 2995.5 2621.3 2996.2 2604.6 2997M2454 1070.4C2445.7 1055.8 2441 1047.9 2441 1047.9L2454 1070.4Z" stroke="#AEC7F1" stroke-width="4.847" stroke-linecap="round" stroke-linejoin="round"/>
<path d="M2553.3 2998.7C2352.1 3002.6 1823.6 2982.6 1768.5 2669C1642.5 1951.8 1946 1455 2046.9 1313.6" stroke="#AEC7F1" stroke-width="4.847" stroke-linecap="round" stroke-linejoin="round" stroke-dasharray="11.48 11.48"/>
<path d="M2062.1 1292.9C2072.3 1279.4 2078.2 1272.5 2078.2 1272.5" stroke="#AEC7F1" stroke-width="4.847" stroke-linecap="round" stroke-linejoin="round"/>
<path d="M4865.6 1605.7C4863 1620.5 4852.2 1644.9 4834.2 1666.3L4802.9 1667.5C4750.3 1659.1 4713.9 1601.1 4713.9 1601.1C4714.9 1638 4700.2 1660.6 4680 1672.4C4656.4 1686.2 4625.1 1685.3 4602.5 1675.5C4596.1 1672.7 4590.3 1669.2 4585.6 1665.1C4582.2 1669.3 4578.8 1673.1 4575.5 1676.6C4523.5 1731.9 4483.6 1714.2 4455.4 1681.3C4444.6 1668.6 4435.5 1653.8 4428.1 1639.8C4426 1657.2 4423 1671.3 4419.2 1682.7C4395.4 1755.4 4342.8 1716.7 4321.4 1704.7C4293.9 1848.7 4122.8 1752.9 4163 1692.8C4167.2 1686.5 4173.7 1680.6 4183 1675.5C4162.9 1685.4 4140.9 1691.5 4118.2 1694.6L4063.7 1696.8C3997.9 1693.5 3934.8 1670.9 3904.1 1647.6C3911.4 1663.5 3923 1684.2 3969.1 1700.6C3981.4 1705 3996.1 1709 4013.9 1712.6C3853.9 1828.8 3775 1777 3706.8 1711C3697.9 1702.4 3689.1 1693.5 3680.5 1684.8C3672.7 1695.6 3664.5 1705 3656.1 1713C3554.4 1810.3 3412.5 1722.6 3412.5 1722.6C3374.5 1689.3 3357.7 1655.6 3358.8 1624.4C3364.1 1620.9 3590.8 1472.2 3817.2 1540.9C3819.1 1500.7 3911.8 1412.5 4047.9 1477.5L4092.7 1480.6C4092.7 1480.6 3935.9 1364.7 3958.2 1318.3C4026.2 1347.7 4261.2 1360 4306 1234.8C4350.8 1285.8 4425.1 1287.4 4448.3 1262.7C4496.2 1323 4517.8 1364.7 4480.7 1380.2C4502.3 1397.2 4540.3 1409.4 4515.7 1436.7C4490 1461.4 4444.7 1479.6 4408.6 1489.2C4378.7 1493.4 4360.2 1496.8 4360.2 1496.8C4369.5 1497.5 4387.5 1494.8 4408.6 1489.2C4540.7 1470.2 4896.2 1435.1 4865.6 1605.7" fill="#C5EDFF"/>
<path d="M4118.1 1694.5C4100.1 1697 4081.8 1697.5 4063.6 1696.7L4118.1 1694.5ZM4834.2 1666.2C4823.3 1668.8 4812.8 1669 4802.9 1667.4L4834.2 1666.2ZM4360 1496.6C4360 1496.6 4378.5 1493.2 4408.4 1489C4387.4 1494.5 4369.4 1497.2 4360 1496.6Z" fill="#AEC7F1"/>
<path d="M2354.4 3335.6C2354.4 3335.6 2729.8 3355.7 2977.3 3223C3224.8 3090.3 3459.3 3010.6 3351.6 2991.4C3243.9 2972.3 3199.1 2942.9 3178 2973.5C3157.1 3004.2 2354.4 3335.6 2354.4 3335.6" fill="#285F79"/>
<path d="M2966.7 2987.5C2989.1 2960.7 3024.9 2942.8 3051.7 2915.9C3083 2880.1 3105.4 2839.8 3114.3 2790.6C3127.3 2660.9 3142.3 2533.2 3153.9 2406.1C3135.4 2266.2 3116.1 2160.6 3116.1 2160.6L2603.8 1981.3C2603.8 1981.3 2263.6 3255.1 2307.4 3327.7C2327.5 3360.9 2505.3 3308.3 2692.3 3241.5C2798.3 3178.8 2885.5 3090.8 2966.7 2987.5Z" fill="#336D89"/>
<path d="M3153.9 2406.2C3142.3 2533.3 3127.3 2660.9 3114.3 2790.7C3105.4 2839.9 3083 2880.2 3051.7 2916C3024.9 2942.8 2989.1 2960.7 2966.7 2987.6C2885.6 3090.9 2798.3 3178.9 2692.5 3241.7C2913.9 3162.6 3148.1 3063.6 3148.1 3063.6C3213.7 2968.8 3184.8 2639.6 3153.9 2406.2" fill="#285F79"/>
<path d="M1844.8 2041.6C1843.5 2055.5 1863.4 3275.3 2062.8 3307.7C2204.6 3330.8 2318.4 3364.4 2354.5 3335.5C2390.6 3306.6 2643.1 2046 2620.4 1993.6C2597.7 1941.3 1862.8 1848.4 1844.8 2041.6" fill="#83A2D6"/>
<path d="M1868.9 2077.8C1867.7 2090.9 1886.6 3242.9 2077.1 3273.6C2212.6 3295.4 2308.4 3307.4 2342.9 3280.1C2377.4 3252.8 2621.7 2146.3 2576.3 2040.8C2554.9 1991.2 1886.2 1895.3 1868.9 2077.8Z" fill="#5EC1ED"/>
<path d="M1951.6 2132.7C1942.7 2136.6 1930.1 2169.2 1978.4 2164.9C2026.7 2160.6 2019.9 2156.7 2021.3 2149C2022.7 2141.3 2031.7 2130.6 2013.4 2128.1C1995.2 2125.6 1960.5 2128.8 1951.6 2132.7ZM1951.7 2233.8C1944.3 2237 1934 2263.9 1973.8 2260.4C2013.6 2256.9 2008 2253.6 2009.2 2247.3C2010.4 2241 2017.8 2232.1 2002.7 2230.1C1987.7 2227.9 1959.1 2230.5 1951.7 2233.8ZM1950.5 2340.7C1944.4 2343.4 1935.8 2365.6 1968.8 2362.7C2001.8 2359.8 1997.1 2357.1 1998.1 2351.8C1999.1 2346.6 2005.2 2339.2 1992.7 2337.5C1980.3 2335.8 1956.6 2338 1950.5 2340.7ZM1950.5 2448C1944.4 2450.7 1935.8 2472.9 1968.8 2470C2001.8 2467.1 1997.1 2464.4 1998.1 2459.1C1999.1 2453.9 2005.2 2446.5 1992.7 2444.8C1980.3 2443.1 1956.6 2445.3 1950.5 2448ZM2602.3 2573.9C2607.5 2572 2614.7 2570.8 2622.3 2570.5C2635.2 2570.1 2644.2 2573.6 2650.7 2580.9C2659.5 2590.5 2664.8 2608.2 2664.5 2635.7C2664.2 2665.1 2658.2 2684.1 2649.7 2694.9C2642.3 2705 2631.4 2710.5 2617.1 2711.6C2610.9 2712.1 2604.7 2711.9 2600.7 2711.5L2602.3 2573.9ZM2618.6 2692.9C2620.1 2693.2 2621.8 2693.1 2622.9 2693C2634.9 2692.1 2646.1 2678.6 2646.6 2636.5C2646.9 2605.3 2640.1 2587.5 2624.9 2588.1C2623.2 2588.2 2621.3 2588.4 2619.8 2589L2618.6 2692.9ZM2693.4 2669L2687.3 2704.9L2670.8 2706.3L2696 2568.7L2715.4 2568L2735.6 2700.9L2719.5 2702.2L2714.3 2667.5L2693.4 2669ZM2712.8 2650.9L2708.7 2620.2C2707.5 2611.5 2706.2 2599.1 2705.2 2589.7H2704.8C2703.5 2599.3 2701.9 2612.2 2700.5 2620.7L2695.6 2652L2712.8 2650.9ZM2754.9 2585.9L2736.6 2586.6L2736.7 2567.3L2788.9 2565.5L2788.8 2584.5L2770.8 2585.2L2769.9 2698.1L2753.9 2699.4L2754.9 2585.9ZM2809.8 2660.8L2804.3 2695.2L2789.2 2696.5L2812 2564.7L2829.8 2564.1L2848.7 2691.5L2834 2692.7L2829.1 2659.4L2809.8 2660.8ZM2827.6 2643.6L2823.8 2614.2C2822.7 2605.8 2821.5 2593.9 2820.5 2584.9H2820.1C2819 2594.1 2817.5 2606.5 2816.2 2614.6L2811.7 2644.6L2827.6 2643.6ZM2863.3 2564.9C2868.3 2563.1 2874.7 2562.1 2881.6 2561.8C2890 2561.5 2897.8 2563.2 2903.3 2569.8C2907.7 2575 2909.7 2582.9 2909.6 2591.7C2909.5 2603.5 2904.9 2614.2 2896 2619.9V2620.5C2906.5 2623.9 2912.3 2635.4 2912.2 2650.4C2912.2 2660.7 2909.7 2669.1 2905.6 2675.6C2900.3 2684.2 2891.3 2688.9 2878.1 2690C2871.3 2690.6 2866.2 2690.4 2862.6 2689.9L2863.3 2564.9ZM2877.7 2615.3L2882 2615.1C2889.4 2614.7 2895.4 2606.2 2895.5 2594.7C2895.5 2584.4 2892.1 2576.6 2883.1 2577C2880.9 2577.1 2879.2 2577.4 2877.9 2578L2877.7 2615.3ZM2877.4 2673.9C2878.6 2674.2 2880.1 2674.2 2882 2674.1C2890.9 2673.4 2897.4 2665.6 2897.4 2651.3C2897.5 2636.6 2890.1 2629.7 2881.8 2630.1L2877.6 2630.4L2877.4 2673.9ZM2939.5 2651.8L2934.6 2684.5L2920.9 2685.6L2941.1 2560.4L2957.3 2559.9L2974.8 2681.2L2961.4 2682.3L2956.9 2650.6L2939.5 2651.8ZM2955.5 2635.4L2951.9 2607.4C2950.9 2599.4 2949.8 2588.1 2948.8 2579.6H2948.4C2947.4 2588.3 2946.1 2600.1 2945 2607.9L2941.1 2636.4L2955.5 2635.4ZM2985.5 2659.7C2988.7 2662.2 2994.2 2663.9 2998.6 2663.5C3006.8 2662.9 3011.2 2655.7 3011.3 2645.8C3011.3 2636.1 3007.2 2630.9 3000.4 2624.5C2991.1 2616.5 2984.5 2604.8 2984.6 2591.7C2984.6 2572.7 2993.7 2557.5 3009.3 2557C3014.6 2556.8 3019.5 2558.9 3021.7 2560.9L3019.2 2577.2C3017 2575.2 3013.4 2573.4 3009 2573.5C3001.5 2573.8 2997.9 2581.3 2997.9 2588.6C2997.9 2598 3001.2 2602 3009.7 2609.5C3020.2 2618.8 3024.4 2630.1 3024.4 2643C3024.4 2664.4 3013.7 2679 2998.7 2680.2C2992.4 2680.7 2986 2678.7 2983.3 2676.4L2985.5 2659.7ZM3068.6 2619.8L3049.6 2621L3049.5 2658.7L3071.1 2657V2673.2L3036.7 2676L3036.8 2557.1L3069.8 2556V2572.1L3049.6 2572.9V2605.3L3068.6 2604.3V2619.8Z" fill="white"/>
<path d="M3101.1 2978.5C3101.1 2978.5 3110.1 2980.7 3126.5 2984.3" stroke="#AEC7F1" stroke-width="4.847" stroke-linecap="round" stroke-linejoin="round"/>
<path d="M3177.2 2994.8C3397.1 3038.1 4026.5 3134.1 4163.7 2846.3C4304.9 2550.2 4253.7 1944.1 4234.6 1763.9" stroke="#AEC7F1" stroke-width="4.847" stroke-linecap="round" stroke-linejoin="round" stroke-dasharray="11.58 11.58"/>
<path d="M3187.7 2793.8C3187.7 2793.8 3196.7 2796.6 3212.8 2800.7M4231.7 1738.2C4229.8 1721.5 4228.6 1712.4 4228.6 1712.4L4231.7 1738.2Z" stroke="#AEC7F1" stroke-width="4.847" stroke-linecap="round" stroke-linejoin="round"/>
<path d="M3262.5 2811.4C3404.1 2837.7 3708.3 2858.9 3834.4 2594.6C3974.8 2300.2 3935.4 1735.8 3919.3 1563.4" stroke="#AEC7F1" stroke-width="4.847" stroke-linecap="round" stroke-linejoin="round" stroke-dasharray="11.38 11.38"/>
<path d="M3916.8 1538C3915.1 1521.3 3914 1512.1 3914 1512.1" stroke="#AEC7F1" stroke-width="4.847" stroke-linecap="round" stroke-linejoin="round"/>
<path d="M2124.1 2159.4C2124.1 2168.9 2116.4 2176.7 2106.8 2176.7C2097.3 2176.7 2089.5 2169 2089.5 2159.4C2089.5 2149.9 2097.2 2142.1 2106.8 2142.1C2116.3 2142.1 2124.1 2149.9 2124.1 2159.4ZM2215.3 2161.5C2215.3 2169.9 2211 2176.7 2205.8 2176.7C2200.6 2176.7 2196.3 2169.9 2196.3 2161.5C2196.3 2153.1 2200.6 2146.3 2205.8 2146.3C2211 2146.3 2215.3 2153.1 2215.3 2161.5Z" fill="#E5F6FC"/>
<path d="M2313.7 2168.7C2313.7 2176.5 2307.4 2182.9 2299.5 2182.9C2291.7 2182.9 2285.3 2176.6 2285.3 2168.7C2285.3 2160.9 2291.6 2154.5 2299.5 2154.5C2307.4 2154.5 2313.7 2160.8 2313.7 2168.7Z" fill="#EFFBFF"/>
<path d="M2409.3 2186.1C2409.3 2191.3 2405.1 2195.5 2399.9 2195.5C2394.7 2195.5 2390.5 2191.3 2390.5 2186.1C2390.5 2180.9 2394.7 2176.7 2399.9 2176.7C2405.1 2176.7 2409.3 2180.9 2409.3 2186.1ZM2484.3 2191.3C2484.3 2199.4 2480.6 2206 2476.1 2206C2471.5 2206 2467.9 2199.4 2467.9 2191.3C2467.9 2183.2 2471.6 2176.6 2476.1 2176.6C2480.6 2176.7 2484.3 2183.2 2484.3 2191.3ZM2107.6 2253.2C2107.6 2262.7 2099.9 2270.5 2090.3 2270.5C2080.8 2270.5 2073 2262.8 2073 2253.2C2073 2243.7 2080.7 2235.9 2090.3 2235.9C2099.9 2235.9 2107.6 2243.6 2107.6 2253.2Z" fill="#E5F6FC"/>
<path d="M2198.8 2255.2C2198.8 2263.6 2194.5 2270.4 2189.3 2270.4C2184 2270.4 2179.8 2263.6 2179.8 2255.2C2179.8 2246.8 2184.1 2240 2189.3 2240C2194.5 2240.1 2198.8 2246.9 2198.8 2255.2ZM2297.2 2262.5C2297.2 2270.3 2290.9 2276.7 2283 2276.7C2275.2 2276.7 2268.8 2270.4 2268.8 2262.5C2268.8 2254.7 2275.1 2248.3 2283 2248.3C2290.9 2248.3 2297.2 2254.6 2297.2 2262.5Z" fill="#E5F6FC"/>
<path d="M2392.8 2279.8C2392.8 2285 2388.6 2289.2 2383.4 2289.2C2378.2 2289.2 2374 2285 2374 2279.8C2374 2274.6 2378.2 2270.4 2383.4 2270.4C2388.6 2270.4 2392.8 2274.7 2392.8 2279.8ZM2467.8 2285.1C2467.8 2293.2 2464.1 2299.8 2459.6 2299.8C2455 2299.8 2451.4 2293.2 2451.4 2285.1C2451.4 2277 2455.1 2270.4 2459.6 2270.4C2464.1 2270.4 2467.8 2277 2467.8 2285.1Z" fill="#EFFBFF"/>
<path d="M2099.3 2354.2C2099.3 2363.7 2091.6 2371.5 2082 2371.5C2072.5 2371.5 2064.7 2363.8 2064.7 2354.2C2064.7 2344.7 2072.4 2336.9 2082 2336.9C2091.6 2336.9 2099.3 2344.7 2099.3 2354.2Z" fill="#E5F6FC"/>
<path d="M2190.6 2356.3C2190.6 2364.7 2186.3 2371.5 2181.1 2371.5C2175.9 2371.5 2171.6 2364.7 2171.6 2356.3C2171.6 2347.9 2175.9 2341.1 2181.1 2341.1C2186.3 2341.1 2190.6 2347.9 2190.6 2356.3ZM2289 2363.5C2289 2371.3 2282.7 2377.7 2274.8 2377.7C2267 2377.7 2260.6 2371.4 2260.6 2363.5C2260.6 2355.7 2266.9 2349.3 2274.8 2349.3C2282.6 2349.3 2289 2355.6 2289 2363.5ZM2384.6 2380.9C2384.6 2386.1 2380.4 2390.3 2375.2 2390.3C2370 2390.3 2365.8 2386.1 2365.8 2380.9C2365.8 2375.7 2370 2371.5 2375.2 2371.5C2380.4 2371.4 2384.6 2375.7 2384.6 2380.9ZM2459.5 2386.1C2459.5 2394.2 2455.8 2400.8 2451.3 2400.8C2446.7 2400.8 2443.1 2394.2 2443.1 2386.1C2443.1 2378 2446.8 2371.4 2451.3 2371.4C2455.9 2371.4 2459.5 2378 2459.5 2386.1Z" fill="#E5F6FC"/>
<path d="M2097.8 2452.4C2097.8 2461.9 2090.1 2469.7 2080.5 2469.7C2071 2469.7 2063.2 2462 2063.2 2452.4C2063.2 2442.9 2070.9 2435.1 2080.5 2435.1C2090.1 2435.1 2097.8 2442.8 2097.8 2452.4Z" fill="#E5F6FC"/>
<path d="M2189 2454.4C2189 2462.8 2184.7 2469.6 2179.5 2469.6C2174.2 2469.6 2170 2462.8 2170 2454.4C2170 2446 2174.3 2439.2 2179.5 2439.2C2184.7 2439.2 2189 2446 2189 2454.4Z" fill="#EFFBFF"/>
<path d="M2287.4 2461.6C2287.4 2469.4 2281.1 2475.8 2273.2 2475.8C2265.4 2475.8 2259 2469.5 2259 2461.6C2259 2453.8 2265.3 2447.4 2273.2 2447.4C2281.1 2447.5 2287.4 2453.8 2287.4 2461.6Z" fill="#E5F6FC"/>
<path d="M2383 2479C2383 2484.2 2378.8 2488.4 2373.6 2488.4C2368.4 2488.4 2364.2 2484.2 2364.2 2479C2364.2 2473.8 2368.4 2469.6 2373.6 2469.6C2378.8 2469.6 2383 2473.8 2383 2479ZM2458 2484.3C2458 2492.4 2454.3 2499 2449.8 2499C2445.2 2499 2441.6 2492.4 2441.6 2484.3C2441.6 2476.2 2445.3 2469.6 2449.8 2469.6C2454.3 2469.6 2458 2476.2 2458 2484.3Z" fill="#EFFBFF"/>
<path d="M1955.8 2543.6C1950.1 2546.1 1942.1 2566.9 1972.9 2564.2C2003.8 2561.5 1999.4 2558.9 2000.3 2554C2001.2 2549.1 2006.9 2542.2 1995.3 2540.6C1983.7 2539 1961.5 2541.1 1955.8 2543.6Z" fill="white"/>
<path d="M2093.6 2547.7C2093.6 2556.6 2086.4 2563.9 2077.4 2563.9C2068.5 2563.9 2061.2 2556.7 2061.2 2547.7C2061.2 2538.8 2068.4 2531.6 2077.4 2531.6C2086.4 2531.6 2093.6 2538.8 2093.6 2547.7Z" fill="#EFFBFF"/>
<path d="M2179 2549.6C2179 2557.5 2175 2563.8 2170.1 2563.8C2165.2 2563.8 2161.2 2557.4 2161.2 2549.6C2161.2 2541.7 2165.2 2535.4 2170.1 2535.4C2175 2535.4 2179 2541.8 2179 2549.6Z" fill="#E5F6FC"/>
<path d="M2271.1 2556.4C2271.1 2563.7 2265.2 2569.7 2257.8 2569.7C2250.5 2569.7 2244.5 2563.8 2244.5 2556.4C2244.5 2549 2250.4 2543.1 2257.8 2543.1C2265.1 2543.1 2271.1 2549.1 2271.1 2556.4Z" fill="#EFFBFF"/>
<path d="M2360.5 2572.7C2360.5 2577.6 2356.6 2581.5 2351.7 2581.5C2346.8 2581.5 2342.9 2577.6 2342.9 2572.7C2342.9 2567.8 2346.8 2563.9 2351.7 2563.9C2356.6 2563.9 2360.5 2567.8 2360.5 2572.7ZM2430.7 2577.6C2430.7 2585.2 2427.2 2591.3 2423 2591.3C2418.7 2591.3 2415.3 2585.1 2415.3 2577.6C2415.3 2570 2418.8 2563.9 2423 2563.9C2427.2 2563.9 2430.7 2570 2430.7 2577.6Z" fill="#EFFBFF"/>
<path d="M1967.1 2654.8C1961.7 2657.2 1954.1 2676.9 1983.3 2674.3C2012.5 2671.7 2008.4 2669.3 2009.3 2664.7C2010.2 2660.1 2015.6 2653.6 2004.5 2652.1C1993.5 2650.4 1972.5 2652.4 1967.1 2654.8Z" fill="white"/>
<path d="M2097.5 2658.6C2097.5 2667 2090.7 2673.9 2082.2 2673.9C2073.8 2673.9 2066.9 2667.1 2066.9 2658.6C2066.9 2650.1 2073.7 2643.3 2082.2 2643.3C2090.7 2643.4 2097.5 2650.2 2097.5 2658.6Z" fill="#7EC2E2"/>
<path d="M2178.3 2660.5C2178.3 2667.9 2174.5 2674 2169.9 2674C2165.3 2674 2161.5 2668 2161.5 2660.5C2161.5 2653.1 2165.3 2647 2169.9 2647C2174.5 2647 2178.3 2653 2178.3 2660.5Z" fill="#EFFBFF"/>
<path d="M2265.5 2666.9C2265.5 2673.8 2259.9 2679.5 2252.9 2679.5C2246 2679.5 2240.4 2673.9 2240.4 2666.9C2240.4 2659.9 2246 2654.4 2252.9 2654.4C2259.8 2654.3 2265.5 2659.9 2265.5 2666.9Z" fill="#EFFBFF"/>
<path d="M2350.1 2682.3C2350.1 2686.9 2346.4 2690.6 2341.8 2690.6C2337.2 2690.6 2333.5 2686.9 2333.5 2682.3C2333.5 2677.7 2337.2 2674 2341.8 2674C2346.4 2673.9 2350.1 2677.7 2350.1 2682.3ZM2416.5 2686.9C2416.5 2694.1 2413.2 2699.9 2409.2 2699.9C2405.2 2699.9 2401.9 2694.1 2401.9 2686.9C2401.9 2679.7 2405.2 2673.9 2409.2 2673.9C2413.2 2673.9 2416.5 2679.8 2416.5 2686.9Z" fill="#EFFBFF"/>
<path d="M3679.8 2683C3679.8 2683 3666.5 2714.2 3689.1 2709.2C3711.6 2704.2 3781.9 2691.3 3781.9 2691.3C3781.9 2691.3 3732.9 2774.2 3759.4 2773.6C3785.9 2773 3801.4 2675.4 3800.5 2665.7C3799.5 2656 3682.9 2673.1 3679.8 2683V2683ZM3830 2281C3830 2281 3835.9 2316.6 3853.3 2299.3C3870.7 2282 3926.5 2230.4 3926.5 2230.4C3926.5 2230.4 3929.7 2332.9 3953.2 2317.3C3976.7 2301.7 3935 2205.1 3928.6 2196.9C3922.3 2188.6 3827.2 2270.4 3830 2281ZM2827.4 1833.7C2827.4 1833.7 2815.2 1860.9 2804 1839.9C2792.8 1819 2756 1755.1 2756 1755.1C2756 1755.1 2732.6 1838.6 2715.9 1816.8C2699.2 1795 2754 1731 2761 1726.6C2768.1 1722.2 2832 1826 2827.4 1833.7ZM1971.6 1614.9C1971.6 1614.9 1944.3 1635.5 1944.7 1608.2C1945.1 1580.9 1943.6 1496.3 1943.6 1496.3C1943.6 1496.3 1873.8 1567.2 1869.1 1536C1864.4 1504.8 1955 1471 1964.5 1470.4C1973.9 1469.9 1980.5 1609.7 1971.6 1614.9ZM1846 1785.2C1846 1785.2 1836.4 1794.6 1836.6 1779.9C1836.8 1765.2 1825.2 1733.9 1825.2 1733.9C1825.2 1733.9 1787.6 1772 1785.1 1755.2C1782.6 1738.4 1831.3 1720.2 1836.4 1719.9C1841.5 1719.8 1850.7 1782.4 1846 1785.2V1785.2ZM4189.2 2467.3C4189.2 2467.3 4197.7 2499.3 4209.3 2485.9C4220.9 2472.5 4258.7 2433.2 4258.7 2433.2C4258.7 2433.2 4272.4 2523.8 4289 2512.6C4305.6 2501.4 4262.5 2411.8 4256.7 2403.9C4250.8 2395.9 4185.8 2457.6 4189.2 2467.3V2467.3ZM4201.6 1947.2C4201.6 1947.2 4208.8 1974.6 4218.8 1963.1C4228.7 1951.7 4261 1918 4261 1918C4261 1918 4272.7 1995.5 4286.9 1985.9C4301.1 1976.3 4264.3 1899.7 4259.3 1892.9C4254.3 1886.2 4198.7 1938.9 4201.6 1947.2" fill="#336D89"/>
<path d="M4365.5 1150.2C4363.9 1149.9 4357.2 1140.4 4346.1 1130.7C4339.6 1118.9 4321.4 1107.5 4285.3 1109.5C4252 1111.3 4238.6 1129.2 4233.3 1143.9C4231.5 1145.9 4229.7 1147.9 4227.9 1150C4213.7 1153.9 4198.8 1158.7 4183.7 1164C4076.7 1159.1 3988.8 1231.6 3964.7 1253.6C3956 1256.1 3949.3 1257.1 3945.3 1256.2C3910.9 1247.6 3826.2 1248.6 3851.9 1321.7C3880.6 1394 4036.4 1449.1 4036.4 1449.1C3950.6 1445.8 3805.6 1355.7 3792.2 1493C3538.9 1454.3 3362.2 1527.2 3358.7 1624.1C3364 1620.6 3590.7 1471.9 3817.1 1540.6C3819 1500.4 3911.7 1412.2 4047.8 1477.2L4092.6 1480.3C4092.6 1480.3 3935.8 1364.4 3958.1 1318C4026.1 1347.4 4261.1 1359.7 4305.9 1234.5C4350.7 1285.5 4425 1287.1 4448.2 1262.3C4496.1 1322.6 4517.7 1364.3 4480.6 1379.8C4502.2 1396.8 4540.2 1409 4515.6 1436.3C4532.5 1420.1 4540.9 1401 4532.6 1379.8C4607.1 1324.3 4641.6 1202.8 4365.5 1150.2" fill="#E5F6FC"/>
<path d="M1807.9 259.6L1801.4 259.8C1799.2 254.3 1798.3 250.8 1798.2 250.1C1798.9 250.7 1802.2 254.3 1807.9 259.6Z" fill="white"/>
<path d="M1807.9 259.6L1801.4 259.8C1799.2 254.3 1798.3 250.8 1798.2 250.1C1798.9 250.7 1802.2 254.3 1807.9 259.6Z" fill="white"/>
<path d="M3003.3 816.8C2956.6 819.7 2889 825.9 2851.2 832.7C2851.2 826.1 2850 820 2847.8 814.1C2820.5 742 2634.8 727.1 2559 741.8C2569.8 678.8 2500.3 642.4 2455.4 678C2351.8 534.2 2169.4 637.8 2143.1 718.6C1851.6 649.2 1697.9 724.3 1638.1 804.9C1619.6 829.9 1610 855.4 1608.2 877.3C1595.5 861.6 1549.2 843.7 1504.8 829.5C1548.7 830.5 1584.7 840.3 1584.7 840.3C1580.1 827.7 1577.4 815.8 1576.2 804.6C1557 616.1 1995 606.6 2105.8 653.6C2096.9 500.7 2408.2 470.4 2488.3 564.6C2563.1 500.6 2618.2 593.1 2593.3 706.9C2593.3 706.9 2789 641 2860.1 808.3C2915.8 803.4 2961.2 806.4 2997.3 815.2C2999.4 815.8 3001.4 816.3 3003.3 816.8" fill="#EFFBFF"/>
<path d="M3069.3 1065.4C3035.8 1101 2988 1122.5 2936.6 1112C2936.6 1278.7 2833.5 1246 2728.5 1246C2628.9 1493.2 2371 1379.3 2292.7 1279.6C2221.5 1421.8 2002.7 1356.3 1903.1 1235.3C1652.3 1388.3 1584.7 1096.6 1584.7 1096.6C1584.7 1096.6 1427.9 1138.8 1369.6 1046.5C1429.4 1092.6 1522.3 1134.8 1596 1036.1C1674.3 1204.5 1764.4 1278 1854.5 1116.7C1719.4 1072.9 1680.4 1004.8 1670.3 979.6L1676.8 979.4C1722.4 1022.3 1922.3 1185.3 2153.3 998.2C2079.7 1157.1 2113 1256.7 2241 1242.4C2346 1230.8 2373 1069.1 2332 962.9C2323 939.6 2310.8 919 2295.5 903.2C2355.2 929 2427.7 949.3 2494.1 958.8C2549.8 966.9 2601.1 967.4 2636.7 957.1C2475.9 1072 2524.9 1186 2663.1 1133.3C2772.2 1180.7 2874.1 1166.5 2888.4 1097.8C2810.1 1012.4 2824.3 974.4 2824.3 974.4C2824.3 974.4 2909.4 1098.5 3069.3 1065.4" fill="#7EC2E2"/>
<path d="M3069.3 1065.4C2909.4 1098.5 2824.6 974.4 2824.6 974.4C2824.6 974.4 2810.4 1012.3 2888.7 1097.8C2874.4 1166.6 2772.5 1180.8 2663.4 1133.4C2525.1 1186.1 2476.1 1072.1 2636.9 957.2C2601.2 967.5 2549.9 967 2494.2 958.9C2427.8 949.4 2355.3 929.1 2295.6 903.3C2311 919.1 2323.1 939.7 2332.1 963C2373 1069.2 2346.1 1230.9 2241.1 1242.5C2113.1 1256.8 2079.8 1157.1 2153.4 998.3C1922.4 1185.5 1722.5 1022.5 1676.9 979.5C1671.2 974.2 1667.9 970.6 1667.2 970C1667.3 970.7 1668.2 974.2 1670.4 979.7C1680.5 1004.9 1719.4 1073 1854.6 1116.8C1764.5 1278.1 1674.3 1204.5 1596.1 1036.1C1522.4 1134.8 1429.5 1092.6 1369.7 1046.5C1359.8 1031 1352.8 1011.6 1349.7 987.7C1348.8 981.1 1348.3 974.1 1348.1 966.7C1344.8 848.7 1434.9 828 1504.8 829.6C1549.2 843.9 1595.5 861.7 1608.2 877.4C1610 855.5 1619.6 830 1638.1 805C1698 724.4 1851.6 649.3 2143.1 718.7C2169.4 637.9 2351.8 534.3 2455.4 678.1C2500.2 642.5 2569.8 678.9 2559 741.9C2634.8 727.2 2820.5 742 2847.8 814.2C2850 820 2851.2 826.2 2851.2 832.8C2889 826 2956.6 819.8 3003.3 816.9C3083.5 838.4 3116.6 889.4 3118.4 943.2C3119.9 986.7 3100.7 1032.3 3069.3 1065.4" fill="#E5F6FC"/>
<path d="M4834.2 1666.2C4808.2 1697 4767.2 1721.5 4713.9 1701.1C4749.7 1777.3 4562.6 1871.6 4448 1766.2C4290.1 1919.5 4114.3 1854.6 4031.6 1766.9C3891.9 1818.3 3768.8 1859.7 3680.4 1712.3C3589.2 1835 3455.4 1759.9 3412.4 1722.3C3412.4 1722.3 3554.3 1810 3656 1712.7C3664.5 1704.6 3672.6 1695.3 3680.4 1684.5C3689.1 1693.3 3697.8 1702.1 3706.7 1710.7C3774.9 1776.7 3853.8 1828.5 4013.8 1712.3C3996 1708.7 3981.3 1704.7 3969 1700.3C3922.9 1683.9 3911.4 1663.2 3904 1647.3C3934.7 1670.6 3997.8 1693.2 4063.6 1696.5C4081.7 1697.4 4100.1 1696.8 4118.1 1694.3C4140.8 1691.2 4162.8 1685.1 4182.9 1675.2C4173.7 1680.4 4167.2 1686.3 4162.9 1692.5C4122.7 1752.6 4293.9 1848.5 4321.3 1704.4C4342.7 1716.4 4395.3 1755 4419.1 1682.4C4422.9 1671 4425.9 1656.9 4428 1639.5C4435.4 1653.4 4444.5 1668.3 4455.3 1681C4483.4 1713.9 4523.3 1731.5 4575.4 1676.3C4578.7 1672.8 4582.1 1669 4585.5 1664.8C4590.2 1668.9 4596 1672.4 4602.4 1675.2C4625.1 1685 4656.3 1686 4679.9 1672.1C4700.1 1660.3 4714.8 1637.8 4713.8 1600.8C4713.8 1600.8 4750.3 1658.8 4802.8 1667.2C4812.8 1669 4823.3 1668.9 4834.2 1666.2" fill="#7EC2E2"/>
<path d="M4118.1 1694.5C4100.1 1697 4081.8 1697.5 4063.6 1696.7L4118.1 1694.5ZM4834.2 1666.2C4823.3 1668.8 4812.8 1669 4802.9 1667.4L4834.2 1666.2Z" fill="#AEC7F1"/>
</svg>
